<svg width="158" height="44" fill="none" xmlns="http://www.w3.org/2000/svg"><g clip-path="url(#a)" fill="#fff"><path d="M38.21 4.081c0 .643-.119 1.17-.325 1.608-.236.439-.53.819-.913 1.082a4.433 4.433 0 0 1-1.355.614c-.501.117-1.061.204-1.65.204v2.193H31.02V.602h2.947c.589 0 1.149.059 1.65.205.5.117.972.321 1.355.614.383.263.677.643.913 1.082.206.409.324.964.324 1.578Zm-1.356 0c0-.41-.059-.76-.206-1.081a2.09 2.09 0 0 0-.59-.731 2.408 2.408 0 0 0-.913-.439 4.748 4.748 0 0 0-1.149-.146h-1.561v6.958h.353V6.449h1.208c.413 0 .796-.058 1.15-.146.353-.088.647-.234.913-.438.265-.205.47-.439.589-.731.147-.263.206-.643.206-1.053Zm-.383 0c0 .38-.059.731-.206.994a1.974 1.974 0 0 1-.56.643c-.236.147-.5.264-.796.351a4.89 4.89 0 0 1-.942.117h-1.208V2.035h1.208c.324 0 .648.029.942.117.295.058.56.175.796.35.236.147.412.38.56.644.147.234.206.555.206.935Zm-2.504 1.023h.117c.383 0 .678-.087.825-.263.177-.175.266-.438.266-.76 0-.321-.089-.584-.266-.76-.176-.175-.441-.263-.825-.263h-.117v2.046ZM52.204.602v6.754h2.534v2.397H49.11V.603h3.094ZM54 8.672V8.35h-3.093V1.713h-.354v6.958h3.447ZM68.703.602h2.21l3.506 9.15h-2.917l-.295-.818h-2.799l-.294.819h-2.917l3.506-9.15Zm-1.444 8.07.265-.702h4.567l.265.701h.383l-2.68-6.958h-.531l-2.681 6.958h.412Zm2.563-6.637 2.151 5.613h-4.33l2.18-5.613Zm.62 4.882-.62-1.608-.618 1.608h1.237ZM87.294.602l2.534 3.538V.602h2.887v9.15h-2.446l-2.533-3.507v3.508h-2.888V.603h2.446Zm-.766 8.07V2.326l4.566 6.344h.354V1.713h-.354v6.344l-4.566-6.344h-.354v6.958h.354ZM103.969.602h5.451V3h-2.504v1.023h2.445v2.28h-2.445v1.053h2.592v2.397h-5.539V.603Zm4.508 8.07V8.35h-2.769V5.338h2.622v-.35h-2.622V2.035h2.769v-.322h-3.123v6.958h3.123ZM121.794 3h-1.709V.602h6.453V3h-1.709v6.753h-3.035V3Zm1.709 5.671V2.035h1.974v-.322h-4.331v.322h1.974V8.67h.383ZM9.778 43.227c-1.444 0-2.74-.175-3.89-.555-1.148-.351-2.15-.906-2.975-1.637-.825-.731-1.443-1.638-1.885-2.748C.586 37.175.35 35.888.35 34.397V20.044h7.277v14.062c0 .79.177 1.403.501 1.812.324.41.884.614 1.65.614.766 0 1.326-.204 1.65-.614.324-.409.5-1.023.5-1.812V20.044h7.307v14.383c0 1.491-.235 2.807-.677 3.889a7.132 7.132 0 0 1-1.915 2.748c-.825.73-1.827 1.257-2.976 1.637-1.149.35-2.445.526-3.889.526Zm0-4.063c-3.418 0-5.127-1.667-5.127-5v-11.43h-.883v11.43c0 1.9.53 3.362 1.561 4.356 1.031.994 2.534 1.52 4.449 1.52 1.944 0 3.418-.496 4.478-1.52 1.06-.994 1.562-2.455 1.562-4.356v-11.43h-.914v11.43c0 3.333-1.708 5-5.126 5ZM25.305 20.044H38.74v5.934h-6.158v2.515h6.04v5.642h-6.04v8.537h-7.277V20.044Zm4.301 19.88v-8.245h6.482v-.818h-6.482v-7.31h6.835v-.818h-7.719v17.19h.884ZM43.69 31.358c0-1.637.323-3.158.942-4.62.619-1.432 1.473-2.718 2.563-3.77a12.02 12.02 0 0 1 3.8-2.544 11.815 11.815 0 0 1 4.656-.936c1.65 0 3.182.322 4.655.936 1.444.614 2.74 1.462 3.8 2.543a11.915 11.915 0 0 1 2.564 3.772c.619 1.461.943 2.982.943 4.619 0 1.637-.324 3.157-.943 4.619-.619 1.432-1.473 2.719-2.563 3.771a12.017 12.017 0 0 1-3.8 2.544 11.814 11.814 0 0 1-4.656.935 11.92 11.92 0 0 1-4.655-.935c-1.473-.614-2.74-1.462-3.8-2.544a11.918 11.918 0 0 1-2.564-3.771c-.648-1.462-.943-2.982-.943-4.62Zm3.21 0c0 1.198.236 2.31.678 3.362.442 1.052 1.09 1.959 1.886 2.777.795.79 1.738 1.403 2.799 1.871 1.06.439 2.18.673 3.388.673a8.754 8.754 0 0 0 3.388-.673c1.06-.438 1.974-1.082 2.8-1.87.795-.79 1.413-1.726 1.885-2.778a8.57 8.57 0 0 0 .677-3.362c0-1.199-.235-2.31-.677-3.362-.442-1.053-1.09-1.96-1.886-2.778-.795-.789-1.738-1.403-2.799-1.87a8.752 8.752 0 0 0-3.388-.673 8.752 8.752 0 0 0-3.388.672c-1.06.439-1.974 1.082-2.8 1.871-.795.79-1.413 1.725-1.885 2.778a8.57 8.57 0 0 0-.677 3.362Zm8.751 7.805a7.645 7.645 0 0 1-3.064-.613 8.502 8.502 0 0 1-2.504-1.667 8.066 8.066 0 0 1-1.68-2.485 7.486 7.486 0 0 1-.618-3.04c0-1.082.206-2.105.618-3.04a8.427 8.427 0 0 1 1.68-2.486 7.645 7.645 0 0 1 2.504-1.666 7.645 7.645 0 0 1 3.064-.614c1.09 0 2.121.205 3.064.614a8.5 8.5 0 0 1 2.504 1.666 7.58 7.58 0 0 1 1.68 2.485c.412.936.618 1.959.618 3.04a7.486 7.486 0 0 1-.618 3.041 8.428 8.428 0 0 1-1.68 2.485 7.648 7.648 0 0 1-2.504 1.667 7.645 7.645 0 0 1-3.064.614Zm-4.802-7.805c0 .643.118 1.257.383 1.842a4.97 4.97 0 0 0 1.03 1.52c.443.438.944.76 1.533 1.023.59.263 1.208.38 1.856.38.648 0 1.296-.117 1.856-.38a4.538 4.538 0 0 0 1.532-1.023 4.97 4.97 0 0 0 1.031-1.52 4.397 4.397 0 0 0 .383-1.842c0-.643-.117-1.257-.383-1.842a4.97 4.97 0 0 0-1.03-1.52c-.443-.439-.944-.76-1.533-1.024a4.489 4.489 0 0 0-1.856-.38c-.648 0-1.296.117-1.856.38-.59.264-1.09.585-1.532 1.024a4.97 4.97 0 0 0-1.031 1.52c-.236.585-.383 1.199-.383 1.842ZM73.24 20.044h7.867c1.443 0 2.799.204 4.036.584 1.237.38 2.327.936 3.24 1.696a7.631 7.631 0 0 1 2.122 2.777c.5 1.111.766 2.368.766 3.772 0 1.14-.147 2.105-.471 2.894-.324.79-.678 1.433-1.06 1.959a7.367 7.367 0 0 1-1.533 1.49l4.272 7.456h-8.544l-3.418-5.73v5.73H73.24V20.044Zm7.13 14.734c.884 0 1.768-.087 2.593-.263l3.24 5.438h1.061l-3.417-5.701c1.237-.439 2.21-1.082 2.946-1.988.736-.906 1.09-2.046 1.09-3.479 0-.994-.206-1.871-.59-2.602a5.166 5.166 0 0 0-1.59-1.871 6.934 6.934 0 0 0-2.387-1.14c-.913-.263-1.915-.38-2.975-.38h-3.683v17.19h.884v-5.145h2.828v-.059Zm-2.828-.818V23.552h2.799c2.062 0 3.682.438 4.86 1.345 1.18.906 1.769 2.192 1.769 3.859 0 1.666-.59 2.953-1.768 3.859-1.179.906-2.8 1.345-4.861 1.345h-2.8Zm2.975-2.807h.383c.855 0 1.591-.205 2.21-.585.59-.38.913-1.023.913-1.93 0-.905-.294-1.549-.913-1.929-.59-.38-1.326-.584-2.21-.584h-.383v5.028ZM96.898 20.044h7.72v22.628h-7.72V20.044Zm4.302 19.88v-17.19h-.884v17.19h.884ZM110.775 20.044h7.395v5.233l4.302-5.233h8.927l-8.043 10.349 8.455 12.279h-8.779l-4.862-6.987v6.987h-7.395V20.044Zm4.302 19.88v-4.59l3.565-4.386 6.216 8.946h1.061l-6.659-9.676 6.129-7.543h-1.09l-9.193 11.255V22.733h-.884v17.19h.855ZM144.362 20.044h5.48l8.633 22.628h-7.189l-.766-2.047h-6.894l-.766 2.047h-7.189l8.691-22.628Zm-3.535 19.88.648-1.696h11.284l.648 1.696h.943l-6.599-17.19h-1.297l-6.599 17.19h.972Zm6.275-16.372 5.333 13.857H141.77l5.332-13.857Zm1.533 12.074-1.533-3.976-1.532 3.976h3.065Z"/></g><defs><clipPath id="a"><path fill="#fff" transform="translate(.35)" d="M0 0h157.3v44H0z"/></clipPath></defs></svg>