<svg width="48" height="48" viewBox="0 0 48 48" fill="none" xmlns="http://www.w3.org/2000/svg"><path d="M24 .032C37.238.032 47.968 10.762 47.968 24S37.238 47.968 24 47.968.032 37.238.032 24 10.762.032 24 .032Z" fill="#8247E5"/><path d="M24 .032C37.238.032 47.968 10.762 47.968 24S37.238 47.968 24 47.968.032 37.238.032 24 10.762.032 24 .032Z" fill="url(#a)" fill-opacity=".4"/><path d="M30.11 20.2c-.442-.256-1.017-.256-1.504 0l-3.456 1.975-2.345 1.283-3.45 1.977c-.443.255-1.018.255-1.505 0l-2.748-1.544c-.442-.256-.752-.727-.752-1.244V19.6c0-.516.265-.988.752-1.243l2.699-1.505c.442-.255 1.018-.255 1.504 0l2.7 1.505c.442.255.751.727.751 1.243v1.977l2.345-1.333v-1.976a1.38 1.38 0 0 0-.752-1.244l-5.005-2.831c-.442-.256-1.017-.256-1.504 0l-5.088 2.826A1.38 1.38 0 0 0 12 18.262v5.708c0 .516.265.988.752 1.243l5.093 2.832c.443.256 1.018.256 1.504 0l3.451-1.932 2.345-1.332 3.456-1.932c.443-.256 1.018-.256 1.505 0l2.699 1.504c.442.256.752.728.752 1.244v3.048c0 .516-.266.988-.752 1.244l-2.7 1.543c-.442.256-1.017.256-1.504 0l-2.698-1.504c-.443-.256-.753-.728-.753-1.244v-1.976l-2.345 1.332v1.976c0 .517.266.989.753 1.244l5.093 2.832c.442.255 1.017.255 1.504 0l5.093-2.817c.442-.256.752-.728.752-1.244V24.32a1.38 1.38 0 0 0-.752-1.244l-5.137-2.876Z" fill="#fff"/><path opacity=".4" d="M43.48 24c0 10.77-8.727 19.5-19.49 19.5C13.226 43.5 4.5 34.77 4.5 24S13.226 4.5 23.99 4.5c10.763 0 19.49 8.73 19.49 19.5Z" stroke="#fff"/><defs><linearGradient id="a" x1="24.5" y1="48" x2="24.5" y2="0" gradientUnits="userSpaceOnUse"><stop stop-color="#fff" stop-opacity="0"/><stop offset="1" stop-color="#fff"/></linearGradient></defs></svg>