<svg width="48" height="48" viewBox="0 0 48 48" fill="none" xmlns="http://www.w3.org/2000/svg"><path d="M24 .032C37.238.032 47.968 10.762 47.968 24S37.238 47.968 24 47.968.032 37.238.032 24 10.762.032 24 .032Z" fill="#0F4"/><path d="M17 12h14.25v6.295h-6.532v2.666h6.406v5.985h-6.406V36H17V12Zm4.562 21.085v-8.744h6.875v-.868h-6.875V15.72h7.25v-.868h-8.187v18.232h.937Z" fill="#fff"/><path opacity=".8" d="M43.48 24c0 10.77-8.727 19.5-19.49 19.5C13.226 43.5 4.5 34.77 4.5 24S13.226 4.5 23.99 4.5c10.763 0 19.49 8.73 19.49 19.5Z" stroke="#fff"/></svg>