<svg width="20" height="20" viewBox="0 0 20 20" fill="#9C9C9C" xmlns="http://www.w3.org/2000/svg"><path fill-rule="evenodd" clip-rule="evenodd" d="M4.167 1.667h1.666a.833.833 0 0 1 .097 1.66l-.097.006H4.167a.833.833 0 0 0-.828.736l-.006.098v11.666c0 .428.322.78.736.828l.098.005h11.666c.428 0 .78-.321.828-.736l.006-.097v-1.667a.833.833 0 0 1 1.66-.097l.006.097v1.667a2.5 2.5 0 0 1-2.353 2.496l-.147.004H4.167A2.5 2.5 0 0 1 1.67 15.98l-.004-.147V4.167A2.5 2.5 0 0 1 4.02 1.67l.147-.004h1.666-1.666Zm13.333 0 .067.002.1.014.093.025.093.037.08.043.08.056.076.067.08.093.06.092.026.051.028.068.02.063.024.123.006.099v5a.833.833 0 0 1-1.666 0V4.51l-5.245 5.245c-.3.3-.773.323-1.1.07l-.078-.07a.834.834 0 0 1-.07-1.1l.07-.079 5.243-5.244H12.5a.833.833 0 1 1 0-1.667h5Z" /></svg>
