<svg width="24" height="24" viewBox="0 0 24 24" fill="none" xmlns="http://www.w3.org/2000/svg"><path fill-rule="evenodd" clip-rule="evenodd" d="M23.059 12.262c0-.817-.074-1.602-.21-2.356H12v4.456h6.2a5.3 5.3 0 0 1-2.298 3.477v2.89h3.723c2.178-2.005 3.435-4.959 3.435-8.467Z" fill="#4285F4"/><path fill-rule="evenodd" clip-rule="evenodd" d="M12 23.52c3.111 0 5.719-1.032 7.625-2.791l-3.723-2.89c-1.032.69-2.351 1.099-3.901 1.099-3 0-5.54-2.027-6.446-4.75H1.706v2.985a11.515 11.515 0 0 0 10.295 6.347Z" fill="#34A853"/><path fill-rule="evenodd" clip-rule="evenodd" d="M5.554 14.189a6.925 6.925 0 0 1-.361-2.19c0-.758.13-1.497.36-2.188V6.826H1.706A11.515 11.515 0 0 0 .48 12c0 1.859.445 3.618 1.225 5.173l3.849-2.984Z" fill="#FBBC05"/><path fill-rule="evenodd" clip-rule="evenodd" d="M12 5.062c1.692 0 3.21.581 4.404 1.723l3.304-3.305c-1.995-1.858-4.602-3-7.707-3A11.515 11.515 0 0 0 1.706 6.826l3.849 2.985C6.46 7.088 9 5.061 12 5.061Z" fill="#EA4335"/></svg>