<svg width="24" height="24" viewBox="0 0 24 24" fill="none" xmlns="http://www.w3.org/2000/svg"><path d="M23.52 21.72c0 .99-.81 1.8-1.8 1.8H2.28c-.99 0-1.8-.81-1.8-1.8V2.28c0-.99.81-1.8 1.8-1.8h19.44c.99 0 1.8.81 1.8 1.8v19.44Z" fill="#FFE812"/><path d="M12.111 5.044c-4.5 0-8.155 2.878-8.155 6.43 0 2.298 1.53 4.313 3.819 5.45-.125.431-.8 2.768-.831 2.956 0 0-.016.141.07.188.087.055.196.016.196.016.26-.04 2.972-1.945 3.443-2.274.47.063.956.102 1.45.102 4.501 0 8.155-2.878 8.155-6.43.008-3.56-3.646-6.438-8.147-6.438Z" fill="#000"/><path d="M7.603 13.717a.462.462 0 0 1-.47-.447v-2.792h-.738a.463.463 0 0 1 0-.925h2.407a.463.463 0 0 1 0 .925h-.737v2.792c.008.25-.203.447-.462.447ZM11.726 13.709c-.196 0-.345-.078-.392-.212l-.235-.611H9.664l-.235.611c-.047.126-.196.204-.392.204a.78.78 0 0 1-.298-.063c-.134-.062-.251-.227-.11-.666l1.13-2.956a.707.707 0 0 1 .626-.463.707.707 0 0 1 .628.463l1.121 2.964c.141.447.016.611-.11.666a.636.636 0 0 1-.298.063Zm-.87-1.647-.47-1.333-.471 1.333h.94ZM12.894 13.654a.446.446 0 0 1-.455-.431v-3.2c0-.258.211-.47.478-.47s.478.212.478.47v2.76H14.4c.251 0 .455.197.455.432a.446.446 0 0 1-.455.431h-1.505v.008ZM15.504 13.709a.472.472 0 0 1-.47-.47v-3.215c0-.26.211-.47.47-.47s.47.21.47.47v1.011l1.31-1.31a.349.349 0 0 1 .259-.101c.117 0 .235.047.321.14a.463.463 0 0 1 .142.299.39.39 0 0 1-.102.29l-1.075 1.074 1.16 1.537a.468.468 0 0 1-.368.753.48.48 0 0 1-.376-.188l-1.106-1.459-.164.165v1.027a.462.462 0 0 1-.47.447Z" fill="#FFE812"/></svg>