<svg width="24" height="24" viewBox="0 0 24 24" fill="none" xmlns="http://www.w3.org/2000/svg"><path d="M20.11 20.114h-3.413v-5.346c0-1.275-.026-2.916-1.778-2.916-1.779 0-2.05 1.387-2.05 2.822v5.44H9.457V9.12h3.277v1.499h.044c.458-.864 1.572-1.776 3.236-1.776 3.457 0 4.096 2.275 4.096 5.236v6.035ZM5.603 7.616a1.98 1.98 0 0 1-1.647-3.083 1.982 1.982 0 1 1 1.647 3.083Zm1.71 12.498H3.893V9.12h3.421v10.994ZM21.816.48H2.18c-.94 0-1.7.743-1.7 1.66v19.72c0 .918.76 1.66 1.7 1.66h19.633c.939 0 1.707-.742 1.707-1.66V2.14c0-.917-.768-1.66-1.707-1.66h.003Z" fill="#2867B2"/></svg>