<svg width="24" height="24" viewBox="0 0 24 24" fill="none" xmlns="http://www.w3.org/2000/svg"><path d="M12.365 5.797c1.009 0 2.273-.703 3.027-1.64.682-.85 1.18-2.037 1.18-3.223a2.23 2.23 0 0 0-.044-.454c-1.122.044-2.472.776-3.282 1.758-.64.747-1.222 1.918-1.222 3.12 0 .175.028.351.042.41.071.014.185.029.299.029ZM8.812 23.52c1.379 0 1.99-.952 3.709-.952 1.748 0 2.132.923 3.666.923 1.507 0 2.516-1.436 3.468-2.842 1.066-1.611 1.506-3.193 1.534-3.266-.099-.03-2.984-1.245-2.984-4.658 0-2.959 2.274-4.292 2.402-4.394-1.506-2.226-3.794-2.285-4.42-2.285-1.69 0-3.07 1.055-3.936 1.055-.938 0-2.174-.996-3.638-.996C5.828 6.105 3 8.477 3 12.959c0 2.783 1.052 5.727 2.345 7.632 1.108 1.61 2.074 2.929 3.467 2.929Z" fill="#fff"/></svg>