<svg width="24" height="24" viewBox="0 0 24 24" fill="none" xmlns="http://www.w3.org/2000/svg"><g clip-path="url(#a)"><path d="M23.988 12.224c0-.983-.08-1.7-.253-2.444H12.507v4.438h6.59c-.132 1.102-.85 2.763-2.444 3.88l-.022.148 3.55 2.75.246.025c2.258-2.086 3.56-5.156 3.56-8.797" fill="#4285F4"/><path d="M12.507 23.918c3.23 0 5.94-1.063 7.92-2.897l-3.774-2.923c-1.01.704-2.365 1.196-4.146 1.196-3.162 0-5.846-2.087-6.803-4.97l-.14.012-3.692 2.857-.048.134c1.967 3.906 6.006 6.59 10.683 6.59Z" fill="#34A853"/><path d="M5.704 14.324a7.362 7.362 0 0 1-.399-2.365c0-.824.147-1.621.386-2.365l-.007-.159-3.738-2.903-.122.059a11.97 11.97 0 0 0-1.276 5.368c0 1.927.466 3.747 1.276 5.368l3.88-3.003" fill="#FBBC05"/><path d="M12.507 4.624c2.246 0 3.76.97 4.624 1.78l3.375-3.295C18.434 1.183 15.736 0 12.507 0 7.83 0 3.791 2.684 1.824 6.59l3.867 3.004c.97-2.884 3.654-4.97 6.816-4.97" fill="#EB4335"/></g><defs><clipPath id="a"><path fill="#fff" transform="translate(.547)" d="M0 0h23.453v24H0z"/></clipPath></defs></svg>
