<svg width="24" height="24" viewBox="0 0 24 24" fill="none" xmlns="http://www.w3.org/2000/svg"><path fill-rule="evenodd" clip-rule="evenodd" d="M23.52 12c0 6.362-5.158 11.52-11.52 11.52C5.638 23.52.48 18.362.48 12 .48 5.638 5.638.48 12 .48 18.362.48 23.52 5.638 23.52 12Zm-5.525-1.684c.93 0 1.684.754 1.684 1.684 0 .687-.417 1.28-.97 1.55.027.161.04.323.04.498 0 2.587-3.004 4.675-6.723 4.675s-6.723-2.088-6.723-4.675c0-.175.013-.35.04-.512a1.685 1.685 0 0 1 .687-3.22 1.7 1.7 0 0 1 1.16.471C8.347 9.94 9.95 9.413 11.742 9.36l.85-4.015a.328.328 0 0 1 .134-.189.336.336 0 0 1 .229-.04l2.789.593a1.166 1.166 0 0 1 1.064-.674c.66 0 1.2.54 1.2 1.2a1.2 1.2 0 0 1-2.398.054l-2.493-.526-.768 3.597c1.751.068 3.341.606 4.486 1.428.297-.296.701-.471 1.16-.471ZM9.358 12c-.66 0-1.199.539-1.199 1.2 0 .66.54 1.198 1.2 1.198.66 0 1.199-.539 1.199-1.199S10.018 12 9.358 12Zm2.655 5.241c.458 0 2.02-.054 2.843-.875a.347.347 0 0 0 .027-.445.317.317 0 0 0-.445 0c-.526.512-1.617.7-2.412.7-.795 0-1.9-.188-2.412-.7a.317.317 0 0 0-.444 0 .317.317 0 0 0 0 .445c.808.808 2.385.875 2.843.875ZM13.44 13.2c0 .66.539 1.2 1.2 1.2.66 0 1.198-.54 1.198-1.2 0-.66-.539-1.199-1.199-1.199s-1.2.539-1.2 1.2Z" fill="#FF4500"/></svg>