<svg width="25" height="24" viewBox="0 0 25 24" fill="none" xmlns="http://www.w3.org/2000/svg"><path d="M10.218 10.286c.685 0 1.24.514 1.228 1.143 0 .628-.541 1.142-1.228 1.142-.675 0-1.23-.514-1.23-1.142 0-.629.543-1.143 1.23-1.143Zm4.397 0c.687 0 1.23.514 1.23 1.143 0 .628-.543 1.142-1.23 1.142-.674 0-1.228-.514-1.228-1.142 0-.629.542-1.143 1.228-1.143ZM20.292 0c1.33 0 2.41 1.104 2.41 2.472V24l-2.527-2.28-1.422-1.344-1.506-1.429.624 2.221H4.541c-1.329 0-2.41-1.104-2.41-2.472V2.472C2.13 1.104 3.212 0 4.54 0h15.751Zm-4.537 15.672c2.598-.083 3.598-1.824 3.598-1.824 0-3.864-1.694-6.997-1.694-6.997-1.691-1.294-3.303-1.259-3.303-1.259l-.165.192c2 .624 2.927 1.525 2.927 1.525a9.444 9.444 0 0 0-5.912-1.13c-.07 0-.13.013-.2.024-.411.037-1.411.192-2.668.757a11.95 11.95 0 0 0-.694.349s.976-.949 3.091-1.573l-.117-.144s-1.61-.035-3.303 1.26c0 0-1.693 3.132-1.693 6.996 0 0 .988 1.74 3.585 1.824 0 0 .435-.54.789-.995-1.494-.458-2.057-1.418-2.057-1.418s.116.085.328.205c.011.011.023.024.047.035.035.026.07.037.106.061.294.168.587.3.857.408a9.764 9.764 0 0 0 1.73.517c1.004.197 2.037.2 3.044.011a7.616 7.616 0 0 0 1.704-.515c.411-.157.87-.386 1.352-.709 0 0-.587.984-2.128 1.429.353.456.777.971.777.971h-.001Z" fill="#fff" fill-opacity=".4"/></svg>
