<svg width="24" height="24" viewBox="0 0 24 24" fill="none" xmlns="http://www.w3.org/2000/svg"><path d="M9.889 10.354c.668 0 1.21.494 1.198 1.098 0 .603-.528 1.097-1.198 1.097-.658 0-1.2-.494-1.2-1.098 0-.603.53-1.097 1.2-1.097Zm4.29 0c.67 0 1.2.494 1.2 1.098 0 .603-.53 1.097-1.2 1.097-.658 0-1.199-.494-1.199-1.098 0-.603.528-1.097 1.198-1.097ZM19.715.48a2.362 2.362 0 0 1 2.351 2.373V23.52l-2.465-2.189-1.388-1.29-1.468-1.372.609 2.132H4.35A2.362 2.362 0 0 1 2 18.428V2.853A2.362 2.362 0 0 1 4.351.48h15.364ZM15.29 15.525c2.534-.08 3.51-1.75 3.51-1.75 0-3.71-1.653-6.718-1.653-6.718-1.65-1.243-3.222-1.209-3.222-1.209l-.16.185c1.95.599 2.855 1.463 2.855 1.463a9.315 9.315 0 0 0-5.767-1.084c-.07 0-.127.012-.195.023-.401.035-1.377.185-2.603.727-.424.195-.677.334-.677.334s.952-.91 3.016-1.51l-.115-.138s-1.571-.034-3.222 1.21c0 0-1.651 3.007-1.651 6.716 0 0 .963 1.67 3.497 1.751 0 0 .424-.518.77-.956-1.458-.438-2.007-1.36-2.007-1.36s.113.081.32.197c.01.01.022.022.045.033.035.025.07.036.104.059.286.16.573.287.836.391.47.185 1.032.369 1.687.496.98.19 1.988.193 2.97.011a7.52 7.52 0 0 0 1.662-.495c.401-.15.848-.37 1.319-.68 0 0-.573.945-2.076 1.372.345.437.758.932.758.932h-.001Z" fill="#7289DA"/></svg>