<svg width="24" height="24" viewBox="0 0 24 24" fill="none" xmlns="http://www.w3.org/2000/svg"><path d="M12.01.754A11.52 11.52 0 0 0 .48 12.285c0 5.097 3.303 9.412 7.884 10.939.573.114.783-.248.783-.554 0-.267-.02-1.184-.02-2.138-3.206.687-3.874-1.375-3.874-1.375-.516-1.336-1.28-1.68-1.28-1.68-1.05-.706.077-.706.077-.706 1.164.076 1.775 1.184 1.775 1.184 1.031 1.756 2.692 1.26 3.36.954.096-.744.401-1.26.726-1.546-2.558-.267-5.25-1.26-5.25-5.689 0-1.26.458-2.29 1.183-3.093-.114-.286-.515-1.47.115-3.054 0 0 .974-.305 3.169 1.184a11.164 11.164 0 0 1 2.883-.382c.973 0 1.966.133 2.882.382 2.196-1.49 3.17-1.184 3.17-1.184.63 1.584.228 2.768.114 3.054.744.802 1.183 1.833 1.183 3.093 0 4.429-2.691 5.403-5.269 5.689.42.363.783 1.05.783 2.138 0 1.546-.02 2.787-.02 3.17 0 .305.211.667.784.553 4.581-1.527 7.884-5.842 7.884-10.939.019-6.376-5.154-11.53-11.511-11.53Z" fill="#fff"/><path d="M4.852 17.305c-.02.058-.115.077-.191.039-.077-.039-.134-.115-.096-.172.02-.057.115-.076.191-.038.077.038.115.114.096.171Zm.458.516c-.057.057-.172.02-.23-.057-.076-.077-.095-.191-.037-.248.057-.058.152-.02.229.057.076.095.095.21.038.248Zm.458.668c-.076.057-.191 0-.248-.095-.077-.096-.077-.23 0-.268.076-.057.19 0 .248.096.076.095.076.21 0 .267Zm.63.65c-.057.076-.191.056-.306-.039-.095-.095-.133-.23-.057-.286.057-.077.191-.058.306.038.095.076.114.21.057.286Zm.859.362c-.02.095-.153.133-.286.095-.134-.038-.21-.152-.191-.229.019-.095.152-.133.286-.095.134.038.21.134.19.229Zm.935.076c0 .096-.114.172-.248.172-.133 0-.248-.076-.248-.172 0-.095.115-.172.248-.172.134 0 .248.077.248.172Zm.879-.152c.019.095-.077.19-.21.21-.134.019-.249-.039-.268-.134-.019-.096.077-.191.21-.21.134-.02.248.038.268.134Z" fill="#fff"/></svg>