<svg width="24" height="24" viewBox="0 0 24 24" fill="none" xmlns="http://www.w3.org/2000/svg"><path fill-rule="evenodd" clip-rule="evenodd" d="M5.472 23.52h13.056a4.982 4.982 0 0 0 4.992-4.992V5.472A4.982 4.982 0 0 0 18.528.48H5.472A4.982 4.982 0 0 0 .48 5.472v13.056a4.982 4.982 0 0 0 4.992 4.992ZM11.75 3.36c4.628 0 8.39 3.053 8.39 6.816 0 1.498-.575 2.86-1.823 4.205-1.747 2.035-5.683 4.493-6.586 4.877-.88.355-.774-.22-.732-.445l.003-.016.115-.71c.038-.231.057-.557-.02-.769-.076-.25-.46-.364-.729-.422-4.032-.538-7.008-3.36-7.008-6.72 0-3.763 3.763-6.816 8.39-6.816ZM9.442 8.371h.595c.096 0 .173.077.173.154v3.648c0 .077-.077.153-.173.153h-.595c-.096 0-.173-.057-.173-.153V8.525c0-.077.077-.154.173-.154Zm4.647 0h-.576c-.096 0-.173.077-.173.154v2.17l-1.67-2.266s0-.02-.02-.02l-.019-.019h-.614c-.096 0-.173.077-.173.154v3.648c0 .096.077.154.173.154h.595c.096 0 .173-.077.173-.154v-2.17l1.67 2.266a.108.108 0 0 1 .016.02c.006.011.01.018.023.018h.595c.096 0 .173-.076.173-.153V8.525c0-.077-.077-.154-.173-.154Zm-7.067 3.053h1.594c.096 0 .173.077.115.134v.596c0 .096-.058.172-.154.172H6.235c-.038 0-.077-.019-.115-.038a.273.273 0 0 1-.039-.115V8.525c0-.096.077-.173.173-.173h.595c.096 0 .173.077.173.173v2.899Zm10.308-2.15c.096 0 .154-.077.154-.173v-.595c0-.096-.077-.173-.154-.173h-2.342c-.039 0-.077.02-.116.038a.273.273 0 0 0-.038.116v3.647c0 .039.02.077.038.116.039.019.077.038.116.038h2.342c.096 0 .154-.077.154-.173v-.595c0-.096-.077-.173-.154-.173h-1.594v-.537h1.594c.096 0 .154-.077.154-.173v-.595c0-.096-.077-.173-.154-.173h-1.594v-.595h1.594Z" fill="#00B900"/></svg>