<svg width="20" height="20" viewBox="0 0 20 20" fill="none" xmlns="http://www.w3.org/2000/svg"><path d="m18.887 1.25-7.505 5.553 1.395-3.272 6.11-2.281Z" fill="#E17726" stroke="#E17726" stroke-width=".25" stroke-linecap="round" stroke-linejoin="round"/><path d="m1.575 1.25 7.439 5.605-1.33-3.324L1.576 1.25ZM16.184 14.126l-1.996 3.05 4.276 1.178 1.225-4.161-3.505-.067ZM.78 14.193l1.218 4.161 4.269-1.177-1.99-3.05-3.496.066Z" fill="#E27625" stroke="#E27625" stroke-width=".25" stroke-linecap="round" stroke-linejoin="round"/><path d="m6.037 8.973-1.188 1.792 4.231.192-.14-4.553-2.903 2.569ZM14.425 8.973l-2.947-2.621-.096 4.605 4.231-.192-1.188-1.792ZM6.267 17.177l2.56-1.237-2.204-1.717-.356 2.954ZM11.634 15.94l2.554 1.237-.35-2.954-2.204 1.717Z" fill="#E27625" stroke="#E27625" stroke-width=".25" stroke-linecap="round" stroke-linejoin="round"/><path d="m14.188 17.177-2.554-1.237.208 1.659-.022.703 2.368-1.125ZM6.267 17.177l2.375 1.125-.014-.703.2-1.659-2.561 1.237Z" fill="#D5BFB2" stroke="#D5BFB2" stroke-width=".25" stroke-linecap="round" stroke-linejoin="round"/><path d="m8.687 13.127-2.123-.622 1.5-.689.623 1.31ZM11.775 13.127l.624-1.31 1.507.688-2.13.622Z" fill="#233447" stroke="#233447" stroke-width=".25" stroke-linecap="round" stroke-linejoin="round"/><path d="m6.267 17.177.371-3.05-2.36.066 1.989 2.984ZM13.824 14.126l.364 3.05 1.997-2.983-2.361-.067ZM15.613 10.765l-4.231.192.393 2.17.624-1.31 1.507.688 1.707-1.74ZM6.564 12.505l1.5-.689.623 1.31.393-2.169-4.231-.192 1.715 1.74Z" fill="#CC6228" stroke="#CC6228" stroke-width=".25" stroke-linecap="round" stroke-linejoin="round"/><path d="m4.849 10.765 1.774 3.457-.06-1.717-1.714-1.74ZM13.906 12.505l-.067 1.717 1.774-3.457-1.707 1.74ZM9.08 10.957l-.393 2.17.497 2.562.112-3.377-.215-1.355ZM11.382 10.957l-.208 1.348.104 3.384.497-2.562-.393-2.17Z" fill="#E27525" stroke="#E27525" stroke-width=".25" stroke-linecap="round" stroke-linejoin="round"/><path d="m11.775 13.127-.497 2.562.356.251 2.205-1.717.067-1.718-2.13.622ZM6.564 12.505l.06 1.718 2.204 1.717.356-.251-.497-2.562-2.123-.622Z" fill="#F5841F" stroke="#F5841F" stroke-width=".25" stroke-linecap="round" stroke-linejoin="round"/><path d="m11.82 18.302.022-.703-.193-.163H8.813l-.185.163.014.703-2.375-1.125.831.681 1.685 1.163h2.888l1.693-1.163.824-.681-2.368 1.125Z" fill="#C0AC9D" stroke="#C0AC9D" stroke-width=".25" stroke-linecap="round" stroke-linejoin="round"/><path d="m11.634 15.94-.356-.251H9.184l-.356.251-.2 1.659.185-.163h2.836l.193.163-.208-1.659Z" fill="#161616" stroke="#161616" stroke-width=".25" stroke-linecap="round" stroke-linejoin="round"/><path d="m19.206 7.166.631-3.065-.95-2.851-7.253 5.368 2.791 2.355 3.942 1.147.869-1.014-.379-.274.601-.548-.46-.355.601-.46-.393-.303ZM.625 4.1l.638 3.066-.408.304.609.459-.46.355.6.548-.378.274.869 1.014 3.942-1.147 2.791-2.355L1.575 1.25.625 4.1Z" fill="#763E1A" stroke="#763E1A" stroke-width=".25" stroke-linecap="round" stroke-linejoin="round"/><path d="m18.367 10.12-3.942-1.147 1.188 1.792-1.774 3.457 2.346-.03h3.504l-1.322-4.072ZM6.037 8.973 2.095 10.12.78 14.193h3.496l2.346.03-1.774-3.458 1.188-1.792ZM11.382 10.957l.252-4.339 1.143-3.087H7.685l1.143 3.087.252 4.34.097 1.362.007 3.369h2.094l.007-3.37.097-1.362Z" fill="#F5841F" stroke="#F5841F" stroke-width=".25" stroke-linecap="round" stroke-linejoin="round"/></svg>
