<svg width="24" height="24" viewBox="0 0 24 24" fill="none" xmlns="http://www.w3.org/2000/svg"><path fill-rule="evenodd" clip-rule="evenodd" d="M23.52 20.064a3.451 3.451 0 0 1-3.456 3.456H3.936A3.451 3.451 0 0 1 .48 20.064V3.936A3.451 3.451 0 0 1 3.936.48h16.128a3.451 3.451 0 0 1 3.456 3.456v16.128ZM15.26 9.417c-1.554.083-2.91.552-4.008 1.619-1.112 1.08-1.62 2.396-1.478 4.028l-.471-.061c-.431-.057-.84-.111-1.251-.145a1.066 1.066 0 0 0-.585.097c-.397.227-.783.471-1.206.738l-.47.296c.04-.177.075-.347.108-.512.063-.307.123-.595.206-.876.097-.314.052-.488-.237-.693-1.857-1.317-2.647-3.29-2.056-5.32.546-1.876 1.882-3.02 3.7-3.61 2.48-.81 5.275.018 6.778 1.984.546.707.88 1.51.97 2.455ZM8.104 8.78c.013-.373-.308-.707-.687-.72a.699.699 0 0 0-.726.675.685.685 0 0 0 .681.713.707.707 0 0 0 .732-.668Zm3.733-.714a.716.716 0 0 0-.7.707.708.708 0 0 0 .72.688.69.69 0 0 0 .693-.707.69.69 0 0 0-.713-.688Zm6.467 10.82c.148.078.298.157.452.225-.01-.041-.017-.082-.025-.122-.016-.087-.032-.17-.071-.244-.308-.56-.135-.913.347-1.337 1.651-1.471 1.812-3.797.456-5.544-1.555-2.005-4.793-2.487-6.996-1.041-2.48 1.625-2.789 4.67-.643 6.656 1.124 1.04 2.493 1.465 4.022 1.31.206-.02.412-.08.617-.139.293-.084.583-.167.867-.137.332.035.648.202.974.373Zm-4.572-5.757a.58.58 0 0 1-.585.553.58.58 0 0 1-.578-.56.582.582 0 1 1 1.163.006Zm2.454-.051a.584.584 0 0 1 .579-.553c.32 0 .578.277.559.598a.56.56 0 0 1-.572.552.57.57 0 0 1-.566-.597Z" fill="#2DC100"/></svg>