<svg width="24" height="24" viewBox="0 0 24 24" fill="none" xmlns="http://www.w3.org/2000/svg"><path d="M23.52 4.273a9.232 9.232 0 0 1-2.714.763 4.837 4.837 0 0 0 2.078-2.68 9.31 9.31 0 0 1-3.003 1.173A4.662 4.662 0 0 0 16.43 2c-2.609 0-4.725 2.17-4.725 4.847 0 .38.04.749.121 1.104C7.9 7.75 4.416 5.82 2.083 2.885a4.934 4.934 0 0 0-.64 2.439c0 1.68.836 3.165 2.103 4.034a4.64 4.64 0 0 1-2.14-.604v.06c0 2.348 1.629 4.308 3.791 4.751a4.508 4.508 0 0 1-1.244.171c-.304 0-.602-.029-.89-.086.601 1.925 2.347 3.327 4.415 3.364a9.334 9.334 0 0 1-6.998 2.01A13.16 13.16 0 0 0 7.726 21.2c8.696 0 13.45-7.384 13.45-13.79 0-.212-.005-.422-.013-.628a9.696 9.696 0 0 0 2.357-2.509Z" fill="#55ACEE"/></svg>