<svg width="25" height="24" viewBox="0 0 25 24" fill="none" xmlns="http://www.w3.org/2000/svg"><g clip-path="url(#a)"><path d="M24.726 12c0 6-4.371 10.971-10.114 11.829v-8.4h2.829l.514-3.515h-3.343V9.686c0-.943.429-1.886 1.972-1.886h1.542V4.971s-1.371-.257-2.657-.257c-2.743 0-4.543 1.629-4.543 4.715V12H7.841v3.514h3.085v8.4C5.098 22.971.726 18 .726 12c0-6.6 5.4-12 12-12s12 5.4 12 12Z" fill="#0257D5"/></g><defs><clipPath id="a"><path fill="#fff" transform="translate(.726)" d="M0 0h24v24H0z"/></clipPath></defs></svg>
