<svg width="24" height="24" viewBox="0 0 24 24" fill="none" xmlns="http://www.w3.org/2000/svg"><path d="M23.974 7.765c.104 1.337-.123 2.94-1.006 3.018-1.44.129-.689-1.46-.67-2.415.053-2.77-2.312-4.694-4.628-4.694-.656 0-2.18.445-1.945-.939.105-.61.622-.602 1.14-.67 3.895-.52 6.836 2.16 7.11 5.7Z" fill="#E99315"/><path d="M17.603 10.984c1.675.916 3.686 1.373 3.353 4.092-.08.651-.474 1.522-.872 2.078-2.83 3.962-11.368 5.628-16.7 2.616C1.598 18.76-.253 17.28.033 14.337c.245-2.534 1.95-4.497 3.622-6.17C5.249 6.571 6.93 5.322 9.22 4.747c2.483-.624 3.217 1.446 2.548 3.487 1.439-.096 4.487-1.702 5.835-.134.594.691.366 1.929 0 2.884Zm-1.81 6.438c.536-.608 1.075-1.535 1.072-2.615-.007-3.333-4.206-4.564-7.511-4.292-1.808.148-3.024.53-4.292 1.274-1.036.608-2.248 1.597-2.549 3.085-.678 3.345 2.961 4.918 5.633 5.096 3.088.208 6.179-.882 7.646-2.548Z" fill="#D52A2C"/><path d="M20.688 7.765c.14 1.02-.152 1.906-.738 1.945-.977.065-.611-.67-.67-1.543-.038-.538-.483-1.159-.873-1.341-.763-.358-1.945.26-1.945-.805 0-.79.686-.708 1.074-.738 1.698-.129 2.954 1.041 3.152 2.482Z" fill="#E99315"/><path d="M12.841 14.472c1.43 4.318-6.016 6.326-7.377 2.615-.91-2.482 1.276-4.456 3.554-4.694 1.945-.204 3.395.787 3.823 2.079Zm-3.42.738c.303.524 1 .147.939-.269-.073-.48-.945-.41-.94.268Zm-1.208 2.28c1.252-.298 1.42-2.655-.469-2.213-1.587.37-1.28 2.629.47 2.213Z" fill="#000"/></svg>