<svg width="33" height="32" viewBox="0 0 33 32" fill="none" xmlns="http://www.w3.org/2000/svg"><g clip-path="url(#a)"><path d="M32.16 19.866c-.233-.186-.582-.45-1.016-.736a22.081 22.081 0 0 0-3.618-1.945c-.419-.178-.86-.356-1.317-.519-.186-4.757-3.805-8.631-8.446-9.22l.682-1.984a1.397 1.397 0 0 0 1.387-1.394c0-.767-.628-1.395-1.395-1.395s-1.395.628-1.395 1.395c0 .465.233.875.581 1.13l-.751 2.178c-.108 0-.225-.008-.333-.008-.109 0-.225 0-.333.008l-.752-2.185c.349-.255.581-.666.581-1.131 0-.767-.627-1.395-1.395-1.395-.767 0-1.394.628-1.394 1.395s.62 1.387 1.387 1.395l.682 1.983a9.681 9.681 0 0 0-8.446 9.236c-.457.163-.899.34-1.317.52a22.744 22.744 0 0 0-3.619 1.936 11.97 11.97 0 0 0-1.015.736c-.232.186-.356.295-.356.295s.124.116.356.294c.233.186.574.442 1.015.736a22.737 22.737 0 0 0 3.619 1.937c.751.318 1.557.628 2.417.891.28.086.566.17.86.248l-.805 2.852a1.225 1.225 0 0 0-.542 2.37 1.221 1.221 0 0 0 1.03-2.2l1.162-2.805c.318.078.643.155.968.217.008 0 .016 0 .024.008.937.194 1.906.34 2.89.434.984.1 1.983.147 2.983.147s1.999-.046 2.983-.14c.984-.092 1.952-.24 2.882-.426.333-.07.666-.14.992-.224l1.162 2.789a1.221 1.221 0 0 0 1.03 2.2 1.225 1.225 0 0 0-.542-2.37l-.805-2.836c.286-.078.573-.163.852-.248.86-.271 1.673-.574 2.417-.891a22.688 22.688 0 0 0 3.619-1.945c.433-.295.782-.55 1.015-.736.232-.186.356-.302.356-.302s-.108-.117-.34-.295ZM18.436 3.533a.536.536 0 0 1 0 1.07.536.536 0 0 1 0-1.07ZM14.64 4.595a.536.536 0 0 1 0-1.07.536.536 0 0 1 0 1.07ZM5.97 21.12a.783.783 0 0 1-.821-.728.783.783 0 0 1 .728-.821.783.783 0 0 1 .822.728.768.768 0 0 1-.729.822Zm5.075.605a.886.886 0 0 1-.937-.837.886.886 0 0 1 .837-.938.886.886 0 0 1 .937.837.89.89 0 0 1-.837.938Zm6.4-.457a.962.962 0 1 1-1.921-.109.962.962 0 0 1 1.921.109Zm1.945-6.121c-.364-.031-.728-.062-1.1-.086a1.11 1.11 0 0 0 .062-.286c.077-.574-.17-1.077-.55-1.124-.38-.046-.744.372-.822.946a1.887 1.887 0 0 0 0 .418h-.449c-.163 0-.318 0-.48.008a1.26 1.26 0 0 0 0-.419c-.078-.573-.442-.992-.822-.945-.38.046-.627.55-.55 1.123.016.101.039.202.07.287-.357.023-.72.047-1.077.085-.008-.062-.008-.131-.008-.193 0-1.581 1.286-2.86 2.86-2.86 1.58 0 2.858 1.287 2.858 2.86a.504.504 0 0 1 .008.186Zm3.58 5.741a.89.89 0 0 1-.938.837.89.89 0 0 1-.837-.938.89.89 0 0 1 .938-.837.876.876 0 0 1 .837.938Zm-.566-5.3a28.15 28.15 0 0 0-2.022-.333c.008-.1.015-.194.015-.294a3.864 3.864 0 0 0-3.858-3.859 3.864 3.864 0 0 0-3.859 3.859c0 .1.008.201.016.31a27.506 27.506 0 0 0-4.122.844c.457-3.99 3.85-7.097 7.965-7.097 4.106 0 7.5 3.1 7.965 7.09a27.707 27.707 0 0 0-2.1-.52Zm5.517 4.804a.774.774 0 0 1-.822.729.774.774 0 0 1-.728-.822.774.774 0 0 1 .822-.728.779.779 0 0 1 .728.821Z" fill="#fff"/></g><defs><clipPath id="a"><path fill="#fff" transform="translate(.5)" d="M0 0h32v32H0z"/></clipPath></defs></svg>