<svg width="24" height="24" stroke="#9C9C9C" viewBox="0 0 24 24" fill="none" xmlns="http://www.w3.org/2000/svg"><path d="M8.77 2H3.23C2.552 2 2 2.551 2 3.23v5.54C2 9.448 2.551 10 3.23 10h5.54C9.448 10 10 9.449 10 8.77V3.23C10 2.552 9.449 2 8.77 2ZM8.77 14H3.23C2.552 14 2 14.551 2 15.23v5.54c0 .679.551 1.23 1.23 1.23h5.54c.679 0 1.23-.551 1.23-1.23v-5.54c0-.679-.551-1.23-1.23-1.23ZM18 22h2.77c.679 0 1.23-.551 1.23-1.23V19" stroke-width="2" stroke-linecap="round" stroke-linejoin="round"/><path d="M14 22v-3M22 15.5V14" stroke-width="2" stroke-linecap="round"/><path d="M17 15v.77c0 .679.551 1.23 1.23 1.23H19M17 15.23c0-.679-.551-1.23-1.23-1.23H14M20.77 2h-5.54C14.552 2 14 2.551 14 3.23v5.54c0 .679.551 1.23 1.23 1.23h5.54c.679 0 1.23-.551 1.23-1.23V3.23C22 2.552 21.449 2 20.77 2Z"  stroke-width="2" stroke-linecap="round" stroke-linejoin="round"/></svg>
