<svg width="143" height="40" viewBox="0 0 143 40" fill="none" xmlns="http://www.w3.org/2000/svg"><g clip-path="url(#a)"><g clip-path="url(#b)" fill="#fff"><path d="M34.417 3.71c0 .585-.107 1.063-.294 1.462-.214.399-.482.744-.83.983-.349.24-.75.426-1.233.558a6.613 6.613 0 0 1-1.5.187v1.993h-2.678V.547h2.679c.535 0 1.044.054 1.5.187.455.106.883.292 1.232.558.348.239.616.584.83.983.187.372.294.877.294 1.435Zm-1.232 0c0-.372-.053-.69-.187-.983a1.901 1.901 0 0 0-.536-.665 2.189 2.189 0 0 0-.83-.398 4.317 4.317 0 0 0-1.045-.133h-1.42v6.325h.322V5.863h1.098c.375 0 .724-.053 1.045-.133.321-.08.59-.213.83-.399.241-.186.429-.398.536-.664.134-.24.187-.585.187-.957Zm-.348 0c0 .346-.053.665-.187.904s-.295.425-.51.585c-.213.132-.454.239-.722.318a4.447 4.447 0 0 1-.857.107h-1.099V1.85h1.099c.294 0 .589.026.857.106.268.053.509.16.723.319.214.133.375.346.509.585.134.212.187.505.187.85Zm-2.276.93h.107c.348 0 .616-.08.75-.239.16-.16.24-.398.24-.69 0-.293-.08-.532-.24-.692-.161-.16-.402-.239-.75-.239h-.107v1.86ZM44.354.547h2.786v6.14h2.303v2.18h-5.115V.546h.026Zm4.42 7.336V7.59H45.96V1.557h-.321v6.326h3.134ZM62.139.547h2.009l3.187 8.32h-2.651l-.268-.745H61.87l-.268.744h-2.651L62.139.547Zm-1.312 7.336.24-.638h4.152l.241.638h.348l-2.437-6.326h-.482l-2.437 6.326h.375Zm2.33-6.033 1.955 5.103h-3.937l1.982-5.103Zm.562 4.438-.562-1.462-.563 1.462h1.125ZM76.844.547h2.196l2.303 3.216V.547h2.625v8.32h-2.223l-2.303-3.19v3.19h-2.625V.546h.027Zm1.5 7.336V2.116l4.15 5.767h.322V1.557h-.321v5.768l-4.152-5.768h-.321v6.326h.321ZM94.2.547h4.955v2.18h-2.277v.93H99.1V5.73h-2.223v.957h2.357v2.18H94.2V.546Zm4.097 7.336V7.59H95.78V4.853h2.383v-.319H95.78V1.85h2.517v-.293h-2.839v6.326h2.84ZM110.404 2.727h-1.554V.547h5.866v2.18h-1.553v6.14h-2.759v-6.14Zm1.553 5.156V1.85h1.795v-.293h-3.937v.293h1.794v6.033h.348ZM8.57 39.297c-1.312 0-2.49-.159-3.535-.505a7.225 7.225 0 0 1-2.705-1.488c-.75-.664-1.312-1.488-1.714-2.498C.214 33.796 0 32.626 0 31.27v-13.05h6.616v12.784c0 .718.16 1.276.455 1.648.295.372.804.558 1.5.558s1.205-.186 1.5-.558c.294-.372.455-.93.455-1.648V18.222h6.643v13.076c0 1.355-.215 2.551-.617 3.535a6.485 6.485 0 0 1-1.74 2.498c-.75.664-1.661 1.143-2.706 1.488-1.044.32-2.223.478-3.535.478Zm0-3.694c-3.106 0-4.66-1.515-4.66-4.545V20.667h-.803v10.391c0 1.728.482 3.057 1.42 3.96.937.904 2.303 1.383 4.044 1.383 1.768 0 3.107-.452 4.071-1.383.964-.903 1.42-2.232 1.42-3.96V20.667h-.83v10.391c0 3.03-1.554 4.545-4.661 4.545ZM22.686 18.222H34.9v5.395h-5.598v2.285h5.49v5.13h-5.49v7.76h-6.616v-20.57Zm3.91 18.072V28.8h5.893v-.744h-5.892v-6.644h6.213v-.744h-7.017v15.627h.804ZM39.4 28.507c0-1.488.294-2.87.856-4.2.563-1.301 1.34-2.47 2.33-3.428a10.927 10.927 0 0 1 3.456-2.312 10.74 10.74 0 0 1 4.232-.85c1.5 0 2.892.292 4.231.85 1.313.558 2.491 1.329 3.456 2.312a10.833 10.833 0 0 1 2.33 3.429 10.61 10.61 0 0 1 .857 4.199c0 1.488-.295 2.87-.857 4.2-.563 1.302-1.34 2.471-2.33 3.428a10.926 10.926 0 0 1-3.456 2.312 10.74 10.74 0 0 1-4.231.85c-1.5 0-2.893-.292-4.232-.85-1.34-.558-2.491-1.329-3.455-2.312a10.834 10.834 0 0 1-2.33-3.429c-.59-1.329-.858-2.71-.858-4.199Zm2.919 0c0 1.09.214 2.1.616 3.056.402.957.99 1.781 1.714 2.525.723.718 1.58 1.276 2.544 1.701a7.958 7.958 0 0 0 3.08.611 7.958 7.958 0 0 0 3.08-.61c.965-.4 1.795-.984 2.545-1.702.723-.717 1.286-1.568 1.714-2.525a7.79 7.79 0 0 0 .616-3.056c0-1.09-.214-2.1-.616-3.056-.401-.957-.99-1.781-1.714-2.525-.723-.718-1.58-1.276-2.544-1.701a7.957 7.957 0 0 0-3.08-.612 7.957 7.957 0 0 0-3.08.612c-.965.398-1.795.983-2.545 1.7-.723.718-1.286 1.569-1.714 2.526a7.792 7.792 0 0 0-.616 3.056Zm7.955 7.096a6.95 6.95 0 0 1-2.786-.558 7.729 7.729 0 0 1-2.276-1.515 7.332 7.332 0 0 1-1.527-2.259 6.804 6.804 0 0 1-.563-2.764c0-.983.188-1.914.563-2.764a7.66 7.66 0 0 1 1.526-2.26 6.95 6.95 0 0 1 2.277-1.514 6.95 6.95 0 0 1 2.786-.558 6.95 6.95 0 0 1 2.785.558 7.725 7.725 0 0 1 2.277 1.515 6.89 6.89 0 0 1 1.526 2.259c.375.85.563 1.78.563 2.764 0 .983-.188 1.914-.563 2.764a7.658 7.658 0 0 1-1.526 2.26 6.952 6.952 0 0 1-2.277 1.514 6.95 6.95 0 0 1-2.785.558Zm-4.366-7.096c0 .585.107 1.143.348 1.674.241.532.536.984.938 1.382.401.4.857.691 1.392.93a4.08 4.08 0 0 0 1.688.346c.589 0 1.178-.106 1.687-.345a4.123 4.123 0 0 0 1.393-.93c.402-.4.696-.851.937-1.383.241-.531.349-1.09.349-1.674 0-.585-.108-1.143-.349-1.674a4.518 4.518 0 0 0-.937-1.382 4.555 4.555 0 0 0-1.393-.93 4.081 4.081 0 0 0-1.687-.346c-.59 0-1.179.106-1.688.345-.535.24-.99.532-1.392.93-.402.4-.697.851-.938 1.383a4.46 4.46 0 0 0-.348 1.674ZM66.264 18.222h7.151c1.313 0 2.545.186 3.67.531 1.124.346 2.115.85 2.946 1.542a6.936 6.936 0 0 1 1.928 2.524c.456 1.01.697 2.153.697 3.429 0 1.037-.134 1.913-.429 2.631-.295.718-.616 1.302-.964 1.78a6.696 6.696 0 0 1-1.393 1.356l3.884 6.777h-7.768l-3.107-5.209v5.21h-6.615V18.221Zm6.482 13.395c.803 0 1.607-.08 2.357-.24l2.946 4.944h.964l-3.107-5.183c1.125-.398 2.009-.983 2.678-1.807.67-.824.991-1.86.991-3.163 0-.903-.187-1.7-.535-2.365a4.696 4.696 0 0 0-1.447-1.701 6.307 6.307 0 0 0-2.17-1.037c-.83-.239-1.74-.345-2.704-.345H69.37v15.627h.803V31.67h2.572v-.053Zm-2.572-.745v-9.461h2.545c1.875 0 3.348.398 4.42 1.222 1.07.824 1.606 1.994 1.606 3.509s-.536 2.684-1.607 3.508c-1.071.824-2.544 1.222-4.42 1.222h-2.544Zm2.705-2.551h.349c.776 0 1.446-.186 2.008-.532.536-.345.83-.93.83-1.754s-.267-1.408-.83-1.754c-.535-.345-1.205-.531-2.008-.531h-.349v4.571ZM87.771 18.222h7.018v20.57H87.77v-20.57Zm3.91 18.072V20.667h-.803v15.627h.804ZM100.387 18.222h6.722v4.757l3.911-4.757h8.115l-7.312 9.408 7.687 11.162h-7.981l-4.42-6.352v6.352h-6.722v-20.57Zm3.91 18.072v-4.172l3.241-3.987 5.651 8.133h.965L108.1 27.47l5.571-6.858h-.991l-8.356 10.233v-10.18h-.804v15.628h.777ZM130.92 18.222h4.982l7.848 20.57h-6.535l-.697-1.86h-6.267l-.697 1.86h-6.535l7.901-20.57Zm-3.214 18.072.59-1.541h10.258l.589 1.541H140l-5.999-15.627h-1.179l-6 15.627h.884Zm5.705-14.883 4.848 12.598h-9.696l4.848-12.598Zm1.393 10.976-1.393-3.614-1.392 3.614h2.785Z"/></g></g><defs><clipPath id="a"><path fill="#fff" d="M0 0h143v40H0z"/></clipPath><clipPath id="b"><path fill="#fff" transform="translate(0 .547)" d="M0 0h143.75v38.75H0z"/></clipPath></defs></svg>