<svg width="96" height="18" viewBox="0 0 96 18" fill="none" xmlns="http://www.w3.org/2000/svg"><path fill-rule="evenodd" clip-rule="evenodd" d="M48.57 14.838a3.837 3.837 0 0 1-1.741-.395 3.27 3.27 0 0 1-.776-.543c-.139-.132-.42-.042-.42.147v.283a.235.235 0 0 1-.238.233h-1.141a.235.235 0 0 1-.238-.233V2.481c0-.129.106-.233.238-.233h1.136c.131 0 .238.104.238.233v4.17c0 .19.282.28.42.148.222-.21.483-.39.781-.543a3.837 3.837 0 0 1 1.74-.395c1.138 0 2.099.435 2.884 1.307.81.882 1.214 1.943 1.214 3.181 0 1.25-.405 2.31-1.214 3.182-.785.872-1.746 1.307-2.883 1.307Zm-.264-1.444c.774 0 1.424-.287 1.952-.86.527-.562.791-1.29.791-2.185 0-.882-.264-1.61-.791-2.184a2.547 2.547 0 0 0-1.952-.86c-.785 0-1.442.287-1.97.86-.515.573-.773 1.302-.773 2.184 0 .895.258 1.629.774 2.202.527.562 1.183.843 1.969.843Zm-9.85 1.444c-1.265 0-2.308-.424-3.129-1.272-.82-.849-1.23-1.92-1.23-3.217 0-1.284.398-2.35 1.195-3.199.797-.86 1.817-1.29 3.06-1.29 1.277 0 2.291.408 3.041 1.222.809.851 1.195 2.132 1.145 3.297a.282.282 0 0 1-.288.263h-6.21c-.16 0-.288.129-.272.284.074.695.35 1.265.825 1.71.54.505 1.184.758 1.934.758.957 0 1.723-.435 2.297-1.303a.284.284 0 0 1 .356-.103l.966.461c.136.065.191.228.112.355a4.204 4.204 0 0 1-1.48 1.432c-.68.402-1.454.602-2.321.602Zm-2.49-5.835c-.057.167.078.332.259.332h4.282c.165 0 .297-.138.264-.296a2.025 2.025 0 0 0-.696-1.149c-.434-.39-1.02-.585-1.759-.585-.61 0-1.137.184-1.582.55-.353.3-.61.682-.768 1.148ZM33.6 6.459a.248.248 0 0 0-.24-.323h-1.117a.252.252 0 0 0-.242.177l-1.647 5.468c-.066.219-.382.223-.455.006l-1.832-5.48a.253.253 0 0 0-.24-.171h-1.305a.252.252 0 0 0-.24.17l-1.849 5.485c-.073.217-.388.212-.454-.007l-1.648-5.47a.252.252 0 0 0-.242-.178h-1.152a.248.248 0 0 0-.24.323l2.614 7.933a.252.252 0 0 0 .241.171h1.267c.11 0 .207-.07.24-.171l1.846-5.61c.07-.215.382-.215.453 0l1.861 5.61c.034.102.131.171.24.171h1.286c.11 0 .207-.07.24-.171L33.6 6.459Zm50.12 7.605c.469.425 1.055.637 1.758.637.466 0 .883-.051 1.252-.153a.22.22 0 0 0 .146-.289l-.345-.955c-.046-.128-.194-.19-.327-.149a3.191 3.191 0 0 1-.11.032c-.118.023-.24.035-.37.035-.281 0-.533-.098-.756-.293-.222-.206-.334-.59-.334-1.152V7.813c0-.128.107-.233.238-.233h1.635a.235.235 0 0 0 .237-.232v-.98a.235.235 0 0 0-.237-.232h-1.635a.235.235 0 0 1-.237-.233V2.48a.236.236 0 0 0-.239-.233h-1.142a.235.235 0 0 0-.237.233v3.422a.236.236 0 0 1-.239.233h-1.035a.235.235 0 0 0-.238.233v.979c0 .128.106.232.238.232h1.035c.132 0 .239.105.239.233v4.48c.011.757.246 1.347.703 1.771Zm-23.103-.258c.786-.688 1.178-1.547 1.178-2.58 0-.63-.181-1.198-.545-1.702-.167-.24-.407-.545-1.112-.931-.149-.082-.152-.3-.012-.394.843-.565 1.265-1.42 1.265-2.424 0-.952-.358-1.726-1.072-2.322-.727-.62-1.624-.929-2.69-.929-.856 0-1.6.224-2.234.67a3.668 3.668 0 0 0-1.26 1.524.248.248 0 0 0 .14.328l1 .414a.287.287 0 0 0 .367-.149c.394-.849 1.056-1.274 1.986-1.274.633 0 1.143.161 1.53.482.387.321.58.74.58 1.256 0 .561-.205 1.02-.615 1.375-.41.344-.938.516-1.583.516h-.646a.265.265 0 0 0-.268.262v.956c0 .144.12.261.268.261h.77c.68 0 1.26.201 1.74.602.492.402.739.895.739 1.48 0 .584-.235 1.083-.704 1.496-.48.401-1.049.602-1.705.602-.598 0-1.114-.172-1.548-.516-.359-.303-.633-.713-.822-1.232a.284.284 0 0 0-.371-.168l-.978.399a.25.25 0 0 0-.149.312 4.061 4.061 0 0 0 3.867 2.719c1.15 0 2.11-.345 2.884-1.033Zm4.049-1.823c0-.458.217-.842.65-1.152.446-.31.997-.464 1.653-.464.843 0 1.511.17 2.006.509a.23.23 0 0 1 .101.202c-.032.612-.3 1.149-.805 1.61-.528.493-1.132.74-1.812.74a2.04 2.04 0 0 1-1.266-.413c-.351-.275-.527-.619-.527-1.032Zm4.923-5.177c-.691-.63-1.635-.945-2.83-.945-1.442 0-2.553.485-3.334 1.454a.22.22 0 0 0 .063.327l1.02.628c.108.066.25.037.33-.06.511-.626 1.181-.94 2.008-.94.598 0 1.12.196 1.565.586.448.38.607.838.653 1.355.015.178-.183.293-.351.224-.557-.227-1.226-.341-2.007-.341-1.126 0-2.028.258-2.708.774-.668.516-1.002 1.21-1.002 2.08 0 .826.316 1.514.949 2.065.645.55 1.442.825 2.391.825 1.114 0 2.005-.481 2.673-1.444v.936c0 .129.107.233.238.233h1.142a.235.235 0 0 0 .238-.233V9.37c0-1.09-.346-1.944-1.038-2.564Zm10.423 7.51a.25.25 0 0 1-.252.247h-1.113a.25.25 0 0 1-.253-.247v-.277c0-.178-.276-.263-.405-.138-.204.196-.45.371-.738.525a3.257 3.257 0 0 1-1.582.412c-1.055 0-1.87-.292-2.444-.877-.563-.596-.844-1.439-.844-2.528v-5.05a.25.25 0 0 1 .253-.247h1.112c.14 0 .253.11.253.247v4.947c.035 1.376.744 2.064 2.127 2.064.645 0 1.184-.253 1.617-.757.435-.516.651-1.13.651-1.84V6.383a.25.25 0 0 1 .253-.247h1.112c.14 0 .253.11.253.247v7.933ZM88.37 2.48c0-.129.106-.233.238-.233h1.142c.131 0 .238.104.238.233v4.178c0 .179.274.263.403.137a3.28 3.28 0 0 1 .722-.523 3.354 3.354 0 0 1 1.6-.412c1.055 0 1.864.298 2.426.894.575.585.862 1.422.862 2.51v5.065a.235.235 0 0 1-.238.233h-1.141a.236.236 0 0 1-.239-.233V9.575c0-1.513-.685-2.27-2.057-2.27-.656 0-1.213.27-1.67.809a2.789 2.789 0 0 0-.668 1.857v4.36a.235.235 0 0 1-.238.232h-1.142a.236.236 0 0 1-.238-.233V2.481Z" fill="#fff"/><path d="M14.338 13.227c.094.35.593.35.687 0l2.71-10.06a.73.73 0 0 0-.708-.919h-1.67a.733.733 0 0 0-.71.54L13.12 8.463a.464.464 0 0 0 0 .24l1.22 4.525ZM4.865 8.455a.462.462 0 0 1 0 .24l-1.22 4.525c-.093.35-.592.35-.686 0L.25 3.166a.73.73 0 0 1 .709-.918h1.67c.333 0 .623.222.71.54l1.526 5.667ZM7.15 15.439a.708.708 0 0 1-.684.524h-1.71a.707.707 0 0 1-.685-.89L7.363 2.821a.774.774 0 0 1 .748-.573H10.1c.35 0 .658.235.748.573l3.291 12.252a.707.707 0 0 1-.684.89h-1.71a.708.708 0 0 1-.684-.524L9.437 9.393c-.091-.338-.572-.338-.663 0L7.15 15.439Z" fill="#fff"/><path d="M8.505 14.164c-.123 0-.212-.11-.18-.222l.6-2.12c.05-.175.31-.175.36 0l.6 2.12c.032.112-.057.222-.179.222H8.505Z" fill="#fff"/></svg>