<svg width="24" height="24"  viewBox="0 0 24 24" fill="none" xmlns="http://www.w3.org/2000/svg"><g clip-path="url(#a)"><path d="M23.625 14.925c-1.575 6.45-8.1 10.35-14.55 8.775C2.7 22.05-1.275 15.525.375 9.075c1.575-6.45 8.1-10.35 14.55-8.7 6.375 1.575 10.275 8.1 8.7 14.55Z" fill="#F7931A"/><path d="M17.25 10.275c.225-1.575-.975-2.475-2.625-3L15.15 5.1l-1.35-.3-.525 2.1c-.375-.075-.675-.15-1.05-.225l.6-2.175-1.35-.3-.525 2.175c-.3-.075-.6-.15-.825-.225l-1.8-.45-.375 1.425.975.225c.525.15.6.45.6.75l-.6 2.475s.075 0 .15.075h-.15L8.1 14.1c-.075.15-.225.375-.6.3l-.975-.225-.675 1.5 1.725.45c.3.075.6.15.975.225l-.525 2.175 1.35.3.525-2.175c.375.075.675.15 1.05.3l-.525 2.175 1.35.3.525-2.175c2.25.45 3.9.225 4.65-1.8.6-1.65 0-2.55-1.2-3.225.75-.225 1.35-.75 1.5-1.95Zm-3 4.2c-.375 1.65-3.15.75-4.05.525l.75-2.925c.9.3 3.75.75 3.3 2.4Zm.45-4.2c-.375 1.5-2.625.75-3.375.525L12 8.175c.675.15 3.075.525 2.7 2.1Z" fill="#fff"/></g><defs><clipPath id="a"><path fill="#fff" d="M0 0h24v24H0z"/></clipPath></defs></svg>
