<svg width="20" height="20" viewBox="0 0 20 20" fill="none" xmlns="http://www.w3.org/2000/svg"><g clip-path="url(#a)"><path d="M19.688 12.437c-1.313 5.375-6.75 8.625-12.125 7.313C2.25 18.375-1.062 12.937.313 7.562c1.312-5.375 6.75-8.625 12.124-7.25 5.313 1.313 8.563 6.75 7.25 12.125Z" fill="#F7931A"/><path d="M14.375 8.563c.188-1.313-.813-2.063-2.188-2.5l.438-1.813L11.5 4l-.438 1.75c-.312-.063-.562-.125-.874-.188l.5-1.812-1.126-.25-.437 1.813c-.25-.063-.5-.125-.688-.188l-1.5-.375-.312 1.188.813.187c.437.125.5.375.5.625l-.5 2.063s.062 0 .125.062h-.125L6.75 11.75c-.063.125-.188.313-.5.25l-.813-.188-.562 1.25 1.438.376c.25.062.5.124.812.187l-.438 1.813 1.125.25.438-1.813c.313.063.563.125.875.25l-.438 1.813 1.126.25.437-1.813c1.875.375 3.25.188 3.875-1.5.5-1.375 0-2.125-1-2.688.625-.187 1.125-.624 1.25-1.624Zm-2.5 3.5c-.313 1.374-2.625.624-3.375.437l.625-2.438c.75.25 3.125.626 2.75 2Zm.375-3.5c-.313 1.25-2.188.624-2.813.437L10 6.812c.563.125 2.563.438 2.25 1.75Z" fill="#fff"/></g><defs><clipPath id="a"><path fill="#fff" d="M0 0h20v20H0z"/></clipPath></defs></svg>
