<svg width="20" height="20" viewBox="0 0 20 20" fill="none" xmlns="http://www.w3.org/2000/svg"><path d="M10 20c5.523 0 10-4.477 10-10S15.523 0 10 0 0 4.477 0 10s4.477 10 10 10Z" fill="#26A17B"/><path fill-rule="evenodd" clip-rule="evenodd" d="M11.201 10.864v-.001c-.069.005-.423.026-1.213.026a26.36 26.36 0 0 1-1.232-.026v.002c-2.43-.107-4.244-.53-4.244-1.036s1.814-.93 4.244-1.038v1.653c.158.01.613.038 1.242.038.755 0 1.133-.031 1.203-.038V8.792c2.425.108 4.235.532 4.235 1.037 0 .506-1.81.928-4.235 1.035Zm0-2.244V7.142h3.384V4.887H5.372v2.255h3.384V8.62c-2.75.126-4.819.671-4.819 1.324 0 .652 2.069 1.196 4.819 1.323v4.74H11.2v-4.74c2.746-.127 4.809-.671 4.809-1.323 0-.652-2.063-1.197-4.809-1.324" fill="#fff"/></svg>
