<svg width="700" height="700" viewBox="0 0 700 700" fill="none" xmlns="http://www.w3.org/2000/svg"><g clip-path="url(#a)" fill="#fff"><path d="M39.5 1.9C30.4 4.5 23.2 8.8 16 16 8.7 23.2 4 31.4 1.6 40.6.2 46.2 0 76.6 0 350c0 335.3-.5 308.5 6.3 321.5 4.1 7.7 14.5 18.1 22.2 22.2 13 6.8-13.8 6.3 321.5 6.3 335.2 0 308.4.5 321.5-6.3 7.7-4 18.2-14.5 22.2-22.2 6.8-13.1 6.3 13.7 6.3-321.5s.5-308.4-6.3-321.5c-4-7.7-14.5-18.2-22.2-22.2C658.4-.5 685.3 0 349.4.1 64.8.1 45.1.3 39.5 1.9Zm258.8 247.8c.3 189.1 0 178 6 191.4 5.5 12.1 12.3 18.1 25.2 22.2 9.7 3.1 30.9 3 40.2 0 12.5-4.1 18.8-9.7 24.4-21.6 6.7-14.4 6.3-2.2 6.6-192.5l.4-172.2h171l-.4 182.7c-.4 193.8-.2 187.1-5.3 212.3-10.2 50.6-37.5 91.6-77.9 116.7-34.7 21.7-75.3 32.4-128.5 34-62.1 1.8-113.7-10.7-154-37.4-15.1-10-34.6-29.4-44.2-43.8-12.6-18.9-22.8-43.3-28.2-67.5-5.7-25.9-5.6-22.6-5.6-217.8V77h170l.3 172.7Z"/><path d="M207.3 285.2c.3 129.9.6 146.3 2 154.7 5.5 31.1 16 53.4 33.4 71 22.2 22.3 51.4 34.1 91.8 37.1 40.6 3.1 79.7-5.5 105.9-23.3 7.8-5.3 20.7-17.6 26.8-25.7 6.5-8.5 15.1-26.1 18.3-37.5 6.2-22.4 5.8-12 6.2-173.8l.4-147.7h-22l-.4 145.7c-.4 156.6-.2 149.8-5.3 168.3-6.8 24.7-21.3 44.5-41.2 56.2-21.3 12.5-45.3 17.5-80.2 16.5-29.7-.9-50.3-6-67.9-16.8-23.2-14.3-36.3-34.3-43.3-66.5-2.2-9.9-2.2-10.3-2.5-156.7l-.4-146.7h-22l.4 145.2Z"/></g><defs><clipPath id="a"><path fill="#fff" d="M0 0h700v700H0z"/></clipPath></defs></svg>