<svg width="45" height="44" fill="none" xmlns="http://www.w3.org/2000/svg"><g clip-path="url(#a)"><path d="M34.726 22c0 6-4.371 10.971-10.114 11.829v-8.4h2.829l.514-3.515h-3.343v-2.228c0-.943.429-1.886 1.972-1.886h1.542v-2.829s-1.371-.257-2.657-.257c-2.743 0-4.543 1.629-4.543 4.715V22h-3.085v3.514h3.085v8.4C15.098 32.971 10.726 28 10.726 22c0-6.6 5.4-12 12-12s12 5.4 12 12Z" fill="#4E87F7"/></g><rect x="1.226" y=".5" width="43" height="43" rx="21.5" stroke="#7B7B7B"/><defs><clipPath id="a"><path fill="#fff" transform="translate(10.726 10)" d="M0 0h24v24H0z"/></clipPath></defs></svg>