<svg width="44" height="44" fill="none" xmlns="http://www.w3.org/2000/svg"><g clip-path="url(#a)"><path d="M33.714 22.224c0-.983-.08-1.7-.252-2.445H22.234v4.439h6.59c-.133 1.102-.85 2.763-2.445 3.88l-.022.148 3.55 2.75.246.025c2.259-2.086 3.561-5.156 3.561-8.797Z" fill="#4285F4"/><path d="M22.234 33.918c3.229 0 5.94-1.063 7.92-2.897l-3.774-2.923c-1.01.704-2.366 1.196-4.146 1.196-3.163 0-5.847-2.087-6.804-4.97l-.14.012-3.691 2.857-.049.134c1.967 3.906 6.006 6.59 10.684 6.59Z" fill="#34A853"/><path d="M15.43 24.324a7.361 7.361 0 0 1-.398-2.365c0-.824.146-1.621.385-2.365l-.007-.159-3.737-2.903-.123.059a11.97 11.97 0 0 0-1.275 5.368c0 1.927.465 3.747 1.275 5.368l3.88-3.003Z" fill="#FBBC05"/><path d="M22.234 14.624c2.245 0 3.76.97 4.624 1.78l3.375-3.295c-2.073-1.926-4.77-3.109-8-3.109-4.677 0-8.716 2.684-10.683 6.59l3.867 3.004c.97-2.884 3.654-4.97 6.817-4.97Z" fill="#EB4335"/></g><rect x=".774" y=".5" width="42.453" height="43" rx="21.226" stroke="#7B7B7B"/><defs><clipPath id="a"><path fill="#fff" transform="translate(10.274 10)" d="M0 0h23.453v24H0z"/></clipPath></defs></svg>