<svg width="45" height="44" fill="none" xmlns="http://www.w3.org/2000/svg"><g clip-path="url(#a)"><path fill-rule="evenodd" clip-rule="evenodd" d="M34.726 22c0 6.628-5.372 12-12 12-6.627 0-12-5.372-12-12 0-6.627 5.373-12 12-12 6.628 0 12 5.373 12 12Zm-5.755-1.754c.969 0 1.755.786 1.755 1.754 0 .716-.435 1.333-1.01 1.614.027.168.041.337.041.52 0 2.694-3.13 4.87-7.003 4.87-3.874 0-7.004-2.176-7.004-4.87 0-.183.014-.366.042-.534a1.748 1.748 0 0 1-1.038-1.6c0-.968.786-1.754 1.754-1.754.463 0 .898.196 1.207.49 1.207-.883 2.877-1.43 4.744-1.487l.884-4.182a.341.341 0 0 1 .14-.197c.07-.042.155-.056.24-.042l2.904.618a1.214 1.214 0 0 1 1.11-.702c.687 0 1.248.561 1.248 1.249a1.25 1.25 0 0 1-2.498.056l-2.597-.547-.8 3.747c1.825.07 3.481.632 4.674 1.488.309-.309.73-.491 1.207-.491ZM19.975 22c-.688 0-1.25.561-1.25 1.25 0 .687.562 1.248 1.25 1.248.687 0 1.249-.561 1.249-1.249 0-.688-.562-1.249-1.25-1.249Zm2.765 5.46c.477 0 2.105-.056 2.961-.913a.361.361 0 0 0 .028-.463.33.33 0 0 0-.463 0c-.547.534-1.684.73-2.512.73-.828 0-1.98-.196-2.513-.73a.33.33 0 0 0-.463 0 .33.33 0 0 0 0 .463c.842.843 2.484.913 2.962.913Zm1.487-4.21c0 .687.562 1.248 1.25 1.248.687 0 1.249-.561 1.249-1.249 0-.688-.562-1.249-1.25-1.249-.687 0-1.249.561-1.249 1.25Z" fill="#fff" fill-opacity=".4"/></g><rect x="1.226" y=".5" width="43" height="43" rx="21.5" stroke="#9C9C9C"/><defs><clipPath id="a"><path fill="#fff" transform="translate(10.726 10)" d="M0 0h24v24H0z"/></clipPath></defs></svg>