<svg width="45" height="44" fill="none" xmlns="http://www.w3.org/2000/svg"><path d="M35.294 14.88c-.926.391-1.912.65-2.94.777 1.058-.61 1.865-1.566 2.245-2.72-.987.567-2.076.968-3.236 1.191a5.203 5.203 0 0 0-3.727-1.557c-2.825 0-5.1 2.211-5.1 4.922 0 .39.035.765.119 1.122-4.242-.2-7.996-2.16-10.517-5.147a4.819 4.819 0 0 0-.699 2.487c0 1.704.91 3.215 2.267 4.09a5.183 5.183 0 0 1-2.306-.607v.054c0 2.391 1.77 4.377 4.088 4.835a5.27 5.27 0 0 1-1.337.162c-.327 0-.657-.018-.966-.084.66 1.948 2.537 3.38 4.768 3.427a10.496 10.496 0 0 1-6.327 2.099c-.418 0-.82-.018-1.221-.068 2.26 1.406 4.939 2.208 7.828 2.208 9.389 0 14.522-7.5 14.522-14 0-.218-.008-.428-.019-.637a9.986 9.986 0 0 0 2.558-2.554Z" fill="#00C1EC"/><rect x="1.226" y=".5" width="43" height="43" rx="21.5" stroke="#7B7B7B"/></svg>